<svg viewBox="0 0 1784 1784" xmlns="http://www.w3.org/2000/svg" fill="currentColor"><path d="M845.333.8C638 12.666 446.933 92.133 294 230c-30.4 27.333-62.667 60.533-57.334 58.933 4.267-1.333 64.934-7.333 98.667-9.6 69.2-4.8 168.267-4.533 234 .667C772 296 950.8 350.933 1110 446l22.67 13.466 12.66-2.933C1152.27 454.8 1205.73 442 1264 428s142.4-34.134 186.8-44.667c44.53-10.667 87.07-21.467 94.67-24.133 15.86-5.467 44.93-17.734 45.86-19.2 2.14-3.467-54.26-66.134-87.33-97.067-84.4-78.667-175.33-136.933-278.67-178.667C1143.07 31.2 1064.13 12.133 971.466 3.2c-20.4-2-105.333-3.6-126.133-2.4M402 392.933c-41.467 1.333-99.6 5.6-141.067 10.4-48.267 5.6-122.8 17.333-126.933 19.867-3.467 2.266-25.2 40.4-40.667 71.2-34.133 68.666-58.4 138.533-74.4 214l-3.867 18.4 4.134-.934C31.2 723.333 237.733 674.8 342 650c263.066-62.667 620.666-149.067 620.666-150.134S928.8 484 902 473.333c-147.467-58.667-319.734-86.4-500-80.4m1244.67 50.533c-20.8 10-51.6 22.534-69.6 28.4-9.2 2.934-55.74 14.667-103.34 26-136 32.4-215.6 51.6-216 52-.26.267 8.67 8.4 19.87 18.134 26.8 23.466 83.73 80.4 107.2 107.333 60.27 69.067 114 145.333 159.6 226.667 14.27 25.6 36.93 69.333 45.73 88.666a677 677 0 0 0 6.67 14.404c.8 1.33 56-30.004 88.93-50.67 41.87-26.134 96.54-63.867 98-67.467 1.07-2.933-2-63.6-4.4-86.933-11.46-108.4-41.06-210.134-88.93-306-10.4-20.667-30-56.8-30.8-56.667-.13.133-6 2.8-12.93 6.133m-753.337 194c-381.066 92.4-669.066 161.067-849.466 202.667L1.6 849.866l-.8 6c-.4 3.2-.8 10.4-.8 16v10.267l9.067 4.4C420.933 1091.87 776.267 1179.47 1093.33 1154c111.74-9.07 221.47-32.4 323.47-68.67 24.4-8.8 72.53-27.73 74.27-29.2 1.33-1.33-36.67-76.664-52.94-104.797C1352.8 803.2 1249.47 685.866 1125.2 595.6c-7.87-5.6-15.07-10.267-16-10.134-1.07.134-98.13 23.467-215.867 52"/><path d="M9.867 1024.8c.533 4.27 2.533 16 4.266 25.87C43.334 1210.8 116 1360.93 222.8 1481.47c17.2 19.46 53.467 56 73.2 73.73 214.8 193.33 508.133 269.87 792.13 206.8 160.67-35.73 309.34-116.8 427.74-233.2 32.93-32.53 59.86-62.67 82.8-92.8l8.4-11.07-2.27-12.13c-7.87-41.87-22-100.4-34.8-144.8-6.13-21.47-28.4-90.27-32.67-100.8-1.06-2.8-1.73-2.67-26.93 7.47-114.67 46.13-231.2 75.86-355.07 90.53-91.73 10.93-196.397 12.53-295.33 4.67-250-19.74-519.733-97.74-812.666-235.2-19.067-8.94-35.467-16.54-36.534-16.94-1.466-.66-1.6.67-.933 7.07m1753.463 18.67c-16.13 11.33-90 54.4-112.4 65.73-6.53 3.33-8.4 4.8-7.86 6.53.4 1.2 6.26 18.14 12.93 37.6 13.07 38 26.4 81.2 33.47 108 2.4 9.2 4.66 17.2 5.2 17.74.93 1.06 18-36.54 27.73-61.07 13.2-33.07 29.07-83.87 37.47-119.33 3.06-13.07 12.13-57.47 12.13-59.6 0-1.2-2.53.13-8.67 4.4"/></svg>