<svg width="960" height="540" viewBox="0 0 960 540" fill="none" xmlns="http://www.w3.org/2000/svg">
<g clip-path="url(#clip0_136_46)">
<path d="M960 0H0V540H960V0Z" fill="#FF0099"/>
<path d="M960.404 469C890.404 470.7 820.404 472.4 774.404 439C728.404 405.6 706.504 337.1 659.204 291.2C611.904 245.3 539.204 222 512.304 175.6C485.504 129.2 504.404 59.6 523.404 -10H960.404V469Z" fill="#B0006A"/>
<path d="M960.404 373.2C904.404 374.6 848.404 375.9 811.604 349.2C774.804 322.5 757.304 267.7 719.404 231C681.604 194.3 623.404 175.6 601.904 138.5C580.404 101.3 595.604 45.7 610.804 -10H960.404V373.2Z" fill="#B0006A"/>
<path d="M960.404 277.4C918.404 278.4 876.404 279.4 848.804 259.4C821.204 239.4 808.104 198.3 779.704 170.7C751.304 143.2 707.704 129.2 691.604 101.4C675.404 73.5 686.804 31.7 698.204 -10H960.404V277.4Z" fill="#720045"/>
<path d="M960.404 181.6C932.404 182.3 904.404 183 886.004 169.6C867.604 156.2 858.804 128.8 839.904 110.5C821.004 92.1 791.904 82.8 781.204 64.2C770.404 45.7 778.004 17.8 785.604 -10H960.404V181.6Z" fill="#62003B"/>
<path d="M960.404 85.8C946.404 86.1 932.404 86.5 923.204 79.8C914.004 73.1 909.604 59.4 900.204 50.2C890.704 41.1 876.204 36.4 870.804 27.1C865.404 17.8 869.204 3.9 873.004 -10H960.404V85.8Z" fill="#520032"/>
<path d="M0 86C58.5 90.2 117 94.3 178.3 109.5C239.7 124.6 303.8 150.7 343.7 196.3C383.5 242 398.9 307.3 415.7 367.8C432.6 428.3 450.8 484.2 469 540H0V86Z" fill="#B0006A"/>
<path d="M0 176.8C46.8 180.1 93.6 183.5 142.7 195.6C191.7 207.7 243.1 228.5 274.9 265.1C306.8 301.6 319.1 353.8 332.6 402.2C346.1 450.7 360.6 495.3 375.2 540H0V176.8Z" fill="#720045"/>
<path d="M0 267.6C35.1 270.1 70.2 272.6 107 281.7C143.8 290.8 182.3 306.4 206.2 333.8C230.1 361.2 239.3 400.4 249.4 436.7C259.5 473 270.5 506.5 281.4 540H0V267.6Z" fill="#62003B"/>
<path d="M0 358.4C23.4 360.1 46.8 361.7 71.3 367.8C95.9 373.8 121.5 384.3 137.5 402.5C153.4 420.8 159.6 446.9 166.3 471.1C173 495.3 180.3 517.7 187.6 540H0V358.4Z" fill="#520032"/>
<path d="M0 449.2C11.7 450 23.4 450.9 35.7 453.9C47.9 456.9 60.8 462.1 68.7 471.3C76.7 480.4 79.8 493.5 83.1 505.6C86.5 517.7 90.2 528.8 93.8 540H0V449.2Z" fill="#46002B"/>
<path fill-rule="evenodd" clip-rule="evenodd" d="M68.1426 18.2027C62.2825 10.7709 53.1981 6 42.9991 6C33.6631 6 25.2608 9.99786 19.4109 16.375C25.9255 15.5798 31.824 15.7831 37.135 16.8241C42.6267 17.9006 47.4464 19.8645 51.6301 22.4997C56.4718 21.3317 61.2 20.1963 65.7137 19.1277C66.3713 18.9598 67.1846 18.6498 68.1426 18.2027ZM11.5427 32.0905C12.2791 28.146 13.7393 24.4561 15.7801 21.164C23.615 19.7309 30.4382 19.7781 36.3295 20.9328C39.7005 21.5936 42.7864 22.6207 45.6008 23.9562L43.7383 24.4066C32.9364 27.0186 21.8508 29.6993 11.5427 32.0905ZM11 37.6475C11.0041 37.2653 11.015 36.8847 11.0324 36.5059C21.827 34.0133 33.5176 31.1861 44.8551 28.4446C46.8631 27.959 48.8599 27.4761 50.8388 26.9982C54.6864 29.6852 57.8928 33.0324 60.5104 36.8187C62.0458 39.0397 63.3797 41.4142 64.5195 43.8967C57.4738 46.9016 49.5798 48.2404 40.4043 47.225C31.8845 46.2822 22.1935 43.3019 11 37.6475ZM11.3078 42.4696C13.4821 58.0268 26.8423 70 42.9991 70C53.5025 70 62.8239 64.94 68.6586 57.1248C68.0636 53.9389 67.2184 50.7957 66.1114 47.7691C58.4625 51.0218 49.8681 52.4848 39.9437 51.3865C31.4086 50.442 21.9488 47.6099 11.3078 42.4696ZM71.798 51.9695C73.118 49.2536 74.0651 46.3229 74.5726 43.2441C73.0575 44.2258 71.5048 45.1371 69.9106 45.9702C70.6439 47.935 71.2716 49.9407 71.798 51.9695ZM70.5407 21.6957C73.353 26.4357 74.9764 31.9641 75 37.8698C74.3943 38.3108 73.783 38.7396 73.1655 39.1555C71.5852 40.2203 69.9644 41.2013 68.2967 42.0883C67.0666 39.4177 65.6229 36.8511 63.9545 34.4378C61.7307 31.2211 59.1094 28.2812 56.071 25.7367C59.7128 24.8604 63.2694 24.0091 66.6951 23.1981L66.7108 23.1943L66.7264 23.1904C67.8401 22.9085 69.128 22.3899 70.5407 21.6957Z" fill="white"/>
<path d="M132.818 38.7273C132.818 43.803 131.856 48.1212 129.932 51.6818C128.023 55.2424 125.417 57.9621 122.114 59.8409C118.826 61.7045 115.129 62.6364 111.023 62.6364C106.886 62.6364 103.174 61.697 99.8864 59.8182C96.5985 57.9394 94 55.2197 92.0909 51.6591C90.1818 48.0985 89.2273 43.7879 89.2273 38.7273C89.2273 33.6515 90.1818 29.3333 92.0909 25.7727C94 22.2121 96.5985 19.5 99.8864 17.6364C103.174 15.7576 106.886 14.8182 111.023 14.8182C115.129 14.8182 118.826 15.7576 122.114 17.6364C125.417 19.5 128.023 22.2121 129.932 25.7727C131.856 29.3333 132.818 33.6515 132.818 38.7273ZM122.841 38.7273C122.841 35.4394 122.348 32.6667 121.364 30.4091C120.394 28.1515 119.023 26.4394 117.25 25.2727C115.477 24.1061 113.402 23.5227 111.023 23.5227C108.644 23.5227 106.568 24.1061 104.795 25.2727C103.023 26.4394 101.644 28.1515 100.659 30.4091C99.6894 32.6667 99.2045 35.4394 99.2045 38.7273C99.2045 42.0152 99.6894 44.7879 100.659 47.0455C101.644 49.303 103.023 51.0152 104.795 52.1818C106.568 53.3485 108.644 53.9318 111.023 53.9318C113.402 53.9318 115.477 53.3485 117.25 52.1818C119.023 51.0152 120.394 49.303 121.364 47.0455C122.348 44.7879 122.841 42.0152 122.841 38.7273ZM139.926 62V27.0909H149.312V33.1818H149.676C150.313 31.0152 151.381 29.3788 152.881 28.2727C154.381 27.1515 156.108 26.5909 158.062 26.5909C158.547 26.5909 159.07 26.6212 159.631 26.6818C160.191 26.7424 160.684 26.8258 161.108 26.9318V35.5227C160.653 35.3864 160.025 35.2652 159.222 35.1591C158.419 35.053 157.684 35 157.017 35C155.593 35 154.32 35.3106 153.199 35.9318C152.093 36.5379 151.214 37.3864 150.562 38.4773C149.926 39.5682 149.608 40.8258 149.608 42.25V62H139.926ZM166.295 62V15.4545H175.977V32.9545H176.273C176.697 32.0152 177.311 31.0606 178.114 30.0909C178.932 29.1061 179.992 28.2879 181.295 27.6364C182.614 26.9697 184.25 26.6364 186.205 26.6364C188.75 26.6364 191.098 27.303 193.25 28.6364C195.402 29.9545 197.121 31.947 198.409 34.6136C199.697 37.2652 200.341 40.5909 200.341 44.5909C200.341 48.4848 199.712 51.7727 198.455 54.4545C197.212 57.1212 195.515 59.1439 193.364 60.5227C191.227 61.8864 188.833 62.5682 186.182 62.5682C184.303 62.5682 182.705 62.2576 181.386 61.6364C180.083 61.0152 179.015 60.2348 178.182 59.2955C177.348 58.3409 176.712 57.3788 176.273 56.4091H175.841V62H166.295ZM175.773 44.5455C175.773 46.6212 176.061 48.4318 176.636 49.9773C177.212 51.5227 178.045 52.7273 179.136 53.5909C180.227 54.4394 181.553 54.8636 183.114 54.8636C184.689 54.8636 186.023 54.4318 187.114 53.5682C188.205 52.6894 189.03 51.4773 189.591 49.9318C190.167 48.3712 190.455 46.5758 190.455 44.5455C190.455 42.5303 190.174 40.7576 189.614 39.2273C189.053 37.697 188.227 36.5 187.136 35.6364C186.045 34.7727 184.705 34.3409 183.114 34.3409C181.538 34.3409 180.205 34.7576 179.114 35.5909C178.038 36.4242 177.212 37.6061 176.636 39.1364C176.061 40.6667 175.773 42.4697 175.773 44.5455ZM206.801 62V27.0909H216.483V62H206.801ZM211.665 22.5909C210.225 22.5909 208.991 22.1136 207.96 21.1591C206.945 20.1894 206.438 19.0303 206.438 17.6818C206.438 16.3485 206.945 15.2045 207.96 14.25C208.991 13.2803 210.225 12.7955 211.665 12.7955C213.104 12.7955 214.331 13.2803 215.347 14.25C216.377 15.2045 216.892 16.3485 216.892 17.6818C216.892 19.0303 216.377 20.1894 215.347 21.1591C214.331 22.1136 213.104 22.5909 211.665 22.5909ZM242.807 27.0909V34.3636H221.784V27.0909H242.807ZM226.557 18.7273H236.239V51.2727C236.239 52.1667 236.375 52.8636 236.648 53.3636C236.92 53.8485 237.299 54.1894 237.784 54.3864C238.284 54.5833 238.86 54.6818 239.511 54.6818C239.966 54.6818 240.42 54.6439 240.875 54.5682C241.33 54.4773 241.678 54.4091 241.92 54.3636L243.443 61.5682C242.958 61.7197 242.277 61.8939 241.398 62.0909C240.519 62.303 239.451 62.4318 238.193 62.4773C235.86 62.5682 233.814 62.2576 232.057 61.5455C230.314 60.8333 228.958 59.7273 227.989 58.2273C227.019 56.7273 226.542 54.8333 226.557 52.5455V18.7273Z" fill="white"/>
</g>
<defs>
<clipPath id="clip0_136_46">
<rect width="960" height="540" fill="white"/>
</clipPath>
</defs>
</svg>
